<svg width="24" height="24" viewBox="0 0 24 24" fill="none"
     xmlns="http://www.w3.org/2000/svg">
  <path d="M12 15a3 3 0 1 0 0-6 3 3 0 0 0 0 6z" 
        stroke="#B8A7D3" stroke-width="2" stroke-linecap="round"/>
  <path d="M19.4 12.97c.04-.32.06-.65.06-.97s-.02-.65-.06-.97l2-1.55a.5.5 0 0 0 
           .12-.64l-1.9-3.3a.5.5 0 0 0-.6-.23l-2.35.95a7.07 7.07 0 0 0-1.68-.97l-.36-2.5a.5.5 
           0 0 0-.5-.42h-3.8a.5.5 0 0 0-.5.42l-.36 2.5c-.6.25-1.17.57-1.68.97l-2.35-.95a.5.5 
           0 0 0-.6.23l-1.9 3.3a.5.5 0 0 0 .12.64l2 1.55c-.04.32-.06.65-.06.97s.02.65.06.97l-2 
           1.55a.5.5 0 0 0-.12.64l1.9 3.3c.13.23.4.32.6.23l2.35-.95c.51.4 1.08.72 1.68.97l.36 
           2.5c.04.24.25.42.5.42h3.8c.25 0 .46-.18.5-.42l.36-2.5c.6-.25 1.17-.57 1.68-.97l2.35.95a.5.5 
           0 0 0 .6-.23l1.9-3.3a.5.5 0 0 0-.12-.64l-2-1.55z"
        stroke="#B8A7D3" stroke-width="2" stroke-linecap="round"/>
</svg>
