<svg width="512" height="512" viewBox="0 0 512 512" xmlns="http://www.w3.org/2000/svg">
  
  <defs>
    <linearGradient id="shieldGrad" x1="0%" y1="0%" x2="0%" y2="100%">
      <stop offset="0%" style="stop-color:#FFFFFF;stop-opacity:1" />
      <stop offset="50%" style="stop-color:#C0C0C0;stop-opacity:1" />
      <stop offset="100%" style="stop-color:#808080;stop-opacity:1" />
    </linearGradient>
    
    <linearGradient id="goldGrad" x1="0%" y1="0%" x2="100%" y2="100%">
      <stop offset="0%" style="stop-color:#FFD700;stop-opacity:1" />
      <stop offset="100%" style="stop-color:#DAA520;stop-opacity:1" />
    </linearGradient>
  </defs>

  <g transform="translate(256 256) scale(1.8) translate(-256 -250)">

      <path d="M120,135 L392,135 L370,255 L142,255 Z" 
            fill="#151515" stroke="url(#shieldGrad)" stroke-width="14" stroke-linejoin="round"/>

      <path d="M128,143 L384,143 L364,247 L148,247 Z" fill="#101010" />

      <g fill="url(#goldGrad)" transform="translate(0, 15)">
          <circle cx="160" cy="160" r="12" />
          <circle cx="208" cy="160" r="12" />
          <circle cx="256" cy="160" r="12" />
          <circle cx="304" cy="160" r="12" />
          <circle cx="352" cy="160" r="12" />
          
          <circle cx="184" cy="200" r="12" />
          <circle cx="232" cy="200" r="12" />
          <circle cx="280" cy="200" r="12" />
          <circle cx="328" cy="200" r="12" />
      </g>

      <polyline points="80,340 140,340 140,290 220,290 220,340 300,340 300,290 380,290 380,340 440,340" 
                fill="none" stroke="#F84018" stroke-width="24" stroke-linecap="round" stroke-linejoin="round"/>
  </g>
</svg>